<?xml version="1.0" encoding="UTF-8" standalone="no"?>
<svg
   width="150"
   height="41.80328"
   viewBox="0 0 150 41.803281"
   fill="none"
   version="1.1"
   id="svg16"
   sodipodi:docname="w2g.svg"
   inkscape:version="1.4.3 (0d15f75042, 2025-12-25)"
   xmlns:inkscape="http://www.inkscape.org/namespaces/inkscape"
   xmlns:sodipodi="http://sodipodi.sourceforge.net/DTD/sodipodi-0.dtd"
   xmlns="http://www.w3.org/2000/svg"
   xmlns:svg="http://www.w3.org/2000/svg">
  <sodipodi:namedview
     id="namedview16"
     pagecolor="#ffffff"
     bordercolor="#000000"
     borderopacity="0.25"
     inkscape:showpageshadow="2"
     inkscape:pageopacity="0.0"
     inkscape:pagecheckerboard="0"
     inkscape:deskcolor="#d1d1d1"
     inkscape:zoom="4.1987705"
     inkscape:cx="43.22694"
     inkscape:cy="73.47389"
     inkscape:window-width="2194"
     inkscape:window-height="1162"
     inkscape:window-x="0"
     inkscape:window-y="0"
     inkscape:window-maximized="1"
     inkscape:current-layer="svg16" />
  <rect
     style="fill:#19202a;fill-opacity:1;stroke-width:6.40122;stroke-linejoin:bevel"
     id="rect17"
     width="152.42557"
     height="44.53685"
     x="-1.1908246"
     y="-1.1908249" />
  <g
     clip-path="url(#clip0_211_2736)"
     id="g16"
     transform="translate(14.465,4.05509)">
    <path
       d="M 47.2959,0 C 50.921,0 53.858,2.93699 53.858,6.5621 V 27.131 c 0,3.6251 -2.937,6.5621 -6.5621,6.5621 H 31.6985 L 43.4913,0 Z"
       fill="#fdbd00"
       id="path1" />
    <path
       d="M 8.12744,33.6931 H 22.2589 L 34.0467,0 H 19.9203 Z"
       fill="#fdbd00"
       id="path2" />
    <path
       d="M 45.8399,33.6931 H 31.7085 L 19.9207,0 h 14.1264 z"
       fill="#e8edf4"
       id="path3" />
    <path
       d="M 6.5621,0 C 2.93699,0 0,2.93699 0,6.5621 V 27.131 c 0,3.6251 2.93699,6.5621 6.5621,6.5621 H 22.1596 L 10.3717,0 H 6.56709 Z"
       fill="#e8edf4"
       id="path4" />
    <path
       d="m 69.7647,10.7804 1.3114,-8.68128 h 2.7625 L 71.3803,15.9114 H 68.5829 L 66.9723,7.76865 65.3767,15.9114 H 62.5693 L 60.1011,2.09912 h 2.7824 l 1.3014,8.67138 1.6206,-8.67138 h 2.3436 l 1.6206,8.68128 z"
       fill="#e8edf4"
       id="path5" />
    <path
       d="m 79.2588,15.9112 c -0.0748,-0.1596 -0.1496,-0.4238 -0.2294,-0.7978 -0.4787,0.6582 -1.1319,0.9873 -1.9547,0.9873 -0.8227,0 -1.5757,-0.2842 -2.1391,-0.8527 -0.5685,-0.5684 -0.8477,-1.3064 -0.8477,-2.209 0,-1.077 0.3441,-1.9048 1.0272,-2.4932 0.6881,-0.58835 1.6754,-0.88754 2.9669,-0.9025 h 0.8178 V 8.81556 C 78.8998,8.35183 78.82,8.02771 78.6604,7.83823 78.5009,7.64875 78.2715,7.554 77.9673,7.554 c -0.6682,0 -1.0072,0.39393 -1.0072,1.17679 h -2.6827 c 0,-0.94741 0.354,-1.73028 1.0671,-2.34859 0.713,-0.61831 1.6106,-0.92248 2.6976,-0.92248 1.087,0 1.9946,0.29419 2.6129,0.8776 0.6183,0.58341 0.9274,1.42113 0.9274,2.50816 v 4.82682 c 0.015,0.8876 0.1397,1.5807 0.379,2.0793 v 0.1596 z m -1.5857,-1.9148 c 0.2992,0 0.5485,-0.0598 0.7579,-0.1795 0.2095,-0.1197 0.364,-0.2643 0.4638,-0.4288 v -2.1342 h -0.6433 c -0.4537,0 -0.8127,0.1446 -1.077,0.4388 -0.2643,0.2892 -0.394,0.6782 -0.394,1.1668 0,0.758 0.2992,1.1369 0.8926,1.1369 z"
       fill="#e8edf4"
       id="path6" />
    <path
       d="m 86.2597,3.12109 v 2.52312 h 1.3762 v 2.00952 h -1.3762 v 5.10107 c 0,0.4039 0.0548,0.6831 0.1645,0.8377 0.1097,0.1546 0.3242,0.2294 0.6383,0.2294 0.2593,0 0.4737,-0.0199 0.6383,-0.0648 l -0.02,2.0893 c -0.4538,0.1695 -0.9474,0.2543 -1.481,0.2543 -1.7352,0 -2.6078,-0.9923 -2.6278,-2.9819 V 7.65872 H 82.3853 V 5.6492 H 83.572 V 3.12608 h 2.6827 z"
       fill="#e8edf4"
       id="path7" />
    <path
       d="m 92.4279,13.8918 c 0.7779,0 1.1718,-0.5136 1.1868,-1.5358 h 2.5231 c -0.0149,1.1219 -0.359,2.0245 -1.0322,2.7126 -0.6731,0.6881 -1.5507,1.0322 -2.6178,1.0322 -1.3214,0 -2.3287,-0.4139 -3.0268,-1.2316 -0.6981,-0.8228 -1.0521,-2.0345 -1.0621,-3.6351 v -0.8178 c 0,-1.61061 0.3441,-2.84225 1.0272,-3.68993 0.6881,-0.84769 1.7004,-1.27154 3.0417,-1.27154 1.1319,0 2.0245,0.34905 2.6777,1.04715 0.6532,0.69809 0.9823,1.69039 0.9973,2.97189 H 93.6197 C 93.6147,8.89046 93.52,8.44667 93.3355,8.13253 93.151,7.81839 92.8468,7.66381 92.423,7.66381 c -0.4688,0 -0.8029,0.16455 -1.0073,0.49864 -0.2044,0.33409 -0.3092,0.98232 -0.3241,1.94465 v 1.0522 c 0,0.8427 0.0399,1.4261 0.1246,1.7602 0.0848,0.3341 0.2194,0.5784 0.4089,0.733 0.1895,0.1545 0.4588,0.2343 0.8078,0.2343 z"
       fill="#e8edf4"
       id="path8" />
    <path
       d="m 99.7279,6.54686 c 0.5831,-0.72801 1.2961,-1.09202 2.1441,-1.09202 0.937,0 1.646,0.3291 2.134,0.98731 0.489,0.6582 0.733,1.64052 0.738,2.94197 v 6.52718 h -2.692 V 9.41404 c 0,-0.60335 -0.095,-1.03717 -0.28,-1.30643 -0.184,-0.26927 -0.488,-0.4039 -0.907,-0.4039 -0.489,0 -0.8679,0.22438 -1.1371,0.67316 V 15.9113 H 97.0452 V 1.34106 h 2.6827 v 5.21079 z"
       fill="#e8edf4"
       id="path9" />
    <path
       d="m 68.7179,32.1623 h -8.1428 v -1.8798 l 3.7398,-4.767 c 0.4737,-0.6582 0.8227,-1.2416 1.0471,-1.7403 0.2244,-0.4986 0.3341,-0.9773 0.3341,-1.4311 0,-0.6183 -0.1047,-1.097 -0.3191,-1.446 -0.2144,-0.3491 -0.5186,-0.5236 -0.9175,-0.5236 -0.4388,0 -0.7829,0.2044 -1.0372,0.6133 -0.2543,0.4089 -0.3839,0.9823 -0.3839,1.7203 h -2.6927 c 0,-0.8477 0.1745,-1.6205 0.5286,-2.3236 0.354,-0.7031 0.8427,-1.2466 1.4809,-1.6356 0.6383,-0.3889 1.3563,-0.5834 2.1591,-0.5834 1.2317,0 2.1891,0.3391 2.8722,1.0173 0.6781,0.6781 1.0172,1.6455 1.0172,2.897 0,0.7779 -0.1895,1.5658 -0.5634,2.3686 -0.374,0.7978 -1.0572,1.7851 -2.0445,2.9619 l -1.7751,2.5431 h 4.6972 z"
       fill="#e8edf4"
       id="path10" />
    <path
       d="m 80.0115,30.5963 c -0.5385,0.5834 -1.1967,1.0222 -1.9796,1.3164 -0.7828,0.2942 -1.6355,0.4388 -2.568,0.4388 -1.5857,0 -2.8223,-0.4936 -3.6999,-1.4759 -0.8776,-0.9823 -1.3314,-2.4134 -1.3563,-4.2933 v -2.4882 c 0,-1.9048 0.4139,-3.3708 1.2466,-4.398 0.8327,-1.0272 2.0444,-1.5408 3.6401,-1.5408 1.5009,0 2.6278,0.369 3.3907,1.1119 0.763,0.738 1.2018,1.8999 1.3214,3.4805 h -2.7126 c -0.0748,-0.8776 -0.2593,-1.4759 -0.5485,-1.8 -0.2892,-0.3242 -0.7479,-0.4787 -1.3662,-0.4787 -0.753,0 -1.3015,0.2742 -1.6406,0.8277 -0.344,0.5485 -0.5186,1.4261 -0.5335,2.6278 v 2.5032 c 0,1.2566 0.1895,2.1741 0.5634,2.7475 0.374,0.5734 0.9923,0.8577 1.855,0.8577 0.5485,0 0.9973,-0.1097 1.3363,-0.3341 l 0.2494,-0.1696 v -2.533 h -1.9547 v -2.1043 h 4.752 v 5.7044 z"
       fill="#e8edf4"
       id="path11" />
    <path
       d="m 85.9954,32.3513 c -1.3813,0 -2.4534,-0.4139 -3.2262,-1.2317 -0.7729,-0.8227 -1.1569,-1.9995 -1.1569,-3.5303 v -0.8178 c 0,-1.6206 0.354,-2.8672 1.0621,-3.7498 0.7081,-0.8776 1.7253,-1.3164 3.0467,-1.3164 1.3214,0 2.2638,0.4139 2.9121,1.2366 0.6532,0.8228 0.9823,2.0445 0.9972,3.6601 v 1.3164 H 84.29 c 0.0399,0.7679 0.2044,1.3313 0.5036,1.6854 0.2992,0.354 0.758,0.5335 1.3763,0.5335 0.8975,0 1.6455,-0.3141 2.2488,-0.9374 l 1.0522,1.6206 c -0.3291,0.4537 -0.8078,0.8227 -1.4311,1.1069 -0.6283,0.2793 -1.3065,0.4239 -2.0395,0.4239 z M 84.305,26.0535 h 2.6826 v -0.2494 c -0.0149,-0.6183 -0.1146,-1.087 -0.3041,-1.4061 -0.1895,-0.3192 -0.5186,-0.4787 -0.9873,-0.4787 -0.4688,0 -0.8078,0.1695 -1.0173,0.5086 -0.2144,0.3391 -0.339,0.8826 -0.3739,1.6256 z"
       fill="#e8edf4"
       id="path12" />
    <path
       d="m 94.2677,19.3721 v 2.5231 h 1.3763 v 2.0095 h -1.3763 v 5.1011 c 0,0.4039 0.0549,0.6831 0.1646,0.8377 0.1097,0.1546 0.3241,0.2294 0.6383,0.2294 0.2592,0 0.4737,-0.02 0.6382,-0.0648 l -0.0199,2.0893 c -0.4538,0.1695 -0.9475,0.2543 -1.481,0.2543 -1.7353,0 -2.6079,-0.9923 -2.6278,-2.9819 v -5.4601 h -1.1868 v -2.0095 h 1.1868 v -2.5231 h 2.6827 z"
       fill="#e8edf4"
       id="path13" />
    <path
       d="m 99.733,22.7977 c 0.583,-0.728 1.296,-1.092 2.144,-1.092 0.938,0 1.646,0.3291 2.134,0.9873 0.489,0.6582 0.733,1.6405 0.738,2.942 v 6.5272 h -2.692 v -6.4973 c 0,-0.6034 -0.095,-1.0372 -0.28,-1.3065 -0.184,-0.2692 -0.488,-0.4039 -0.907,-0.4039 -0.489,0 -0.868,0.2244 -1.137,0.6732 v 7.5345 H 97.0503 V 17.5869 h 2.6827 z"
       fill="#e8edf4"
       id="path14" />
    <path
       d="m 110.827,32.3513 c -1.381,0 -2.453,-0.4139 -3.226,-1.2317 -0.773,-0.8227 -1.157,-1.9995 -1.157,-3.5303 v -0.8178 c 0,-1.6206 0.354,-2.8672 1.062,-3.7498 0.709,-0.8776 1.726,-1.3164 3.047,-1.3164 1.322,0 2.264,0.4139 2.912,1.2366 0.653,0.8228 0.983,2.0445 0.997,3.6601 v 1.3164 h -5.34 c 0.04,0.7679 0.204,1.3313 0.504,1.6854 0.299,0.354 0.758,0.5335 1.376,0.5335 0.897,0 1.645,-0.3141 2.249,-0.9374 l 1.052,1.6206 c -0.329,0.4537 -0.808,0.8227 -1.431,1.1069 -0.628,0.2793 -1.307,0.4239 -2.04,0.4239 z m -1.69,-6.2978 h 2.683 v -0.2494 c -0.015,-0.6183 -0.115,-1.087 -0.304,-1.4061 -0.19,-0.3192 -0.519,-0.4787 -0.988,-0.4787 -0.469,0 -0.808,0.1695 -1.017,0.5086 -0.214,0.3391 -0.339,0.8826 -0.374,1.6256 z"
       fill="#e8edf4"
       id="path15" />
    <path
       d="m 121.045,24.4877 -0.893,-0.0748 c -0.733,0 -1.232,0.3242 -1.491,0.9674 v 6.7815 h -2.692 v -10.267 h 2.533 l 0.074,1.112 c 0.424,-0.8677 1.008,-1.3015 1.756,-1.3015 0.304,0 0.548,0.0399 0.738,0.1247 l -0.03,2.6577 z"
       fill="#e8edf4"
       id="path16" />
  </g>
  <defs
     id="defs16">
    <clipPath
       id="clip0_211_2736">
      <rect
         width="121.075"
         height="33.6931"
         fill="#ffffff"
         id="rect16"
         x="0"
         y="0" />
    </clipPath>
  </defs>
</svg>
